<mxfile host="app.diagrams.net" modified="2022-10-31T14:57:10.006Z" agent="5.0 (Windows NT 10.0; Win64; x64) AppleWebKit/537.36 (KHTML, like Gecko) Chrome/107.0.0.0 Safari/537.36 Edg/107.0.1418.26" etag="mCslcJ-Mg12Ff3eaPtUq" version="20.5.1" type="github">
  <diagram id="U4e2waA_kOzq9rH7Hlng" name="第 1 页">
    <mxGraphModel dx="1550" dy="859" grid="1" gridSize="10" guides="1" tooltips="1" connect="1" arrows="1" fold="1" page="1" pageScale="1" pageWidth="827" pageHeight="1169" math="0" shadow="0">
      <root>
        <mxCell id="0" />
        <mxCell id="1" parent="0" />
        <mxCell id="XptagHyOGUnmGPMs9sQp-1" value="享元模式是对于内存不足，且系统中存在有大量属于同一类对象的情况下，将该类中的属性划分为 内部状态和外部状态 来减少内存消耗的一种方式&lt;br&gt;&lt;span style=&quot;white-space: pre;&quot;&gt;	&lt;/span&gt;内部状态：类似于常量，数量有限而且其中的值固定下来就怎么变化&lt;br&gt;&lt;span style=&quot;white-space: pre;&quot;&gt;	&lt;/span&gt;外部状态：属性经常会受到改变" style="shape=note;whiteSpace=wrap;html=1;backgroundOutline=1;darkOpacity=0.05;align=left;" vertex="1" parent="1">
          <mxGeometry x="160" y="30" width="480" height="80" as="geometry" />
        </mxCell>
        <mxCell id="XptagHyOGUnmGPMs9sQp-2" value="" style="shape=image;verticalLabelPosition=bottom;labelBackgroundColor=default;verticalAlign=top;aspect=fixed;imageAspect=0;image=data:image/png,iVBORw0KGgoAAAANSUhEUgAAAnYAAAGaCAMAAAC15P6vAAABzlBMVEVHcEzZgnb/kX3+kH3/kH3/j37/j33/hXr/kH7/j37+kH3/kH3/j33/j33+kH30i3f/kH7/kX3/jn3/kH7/jnvpaF/YQkThV1PRNz3OLzfTO0DOMTjRMzrdhHXRiXvJjILHk4nUQETbTEzrk4XKmpLDmJBbW1tISEhISEhJSUl7XFfojoCWgHyOeHOQdXDBgHlJSUlMTEyskYykh4KIcW16enrj4+P39/f19fX7v7XyoJPYwb3PubXy7+7+lIPiubH7lob9p5n7nI345OHh4eHy8vJsbGxycnKkpKSqqqpZWVnu7u6dnZ19fX1vb2+np6dSUlLr6+vPz8+MjIyTk5Pe3t6wsLDDw8OFhYXc3Nzg4OC6urrk5OS3t7fm5uaIiIiZmZnR0dHo6OjLy8tVVVV1dXXV1dXJycl4eHiWlpZmZmZPT0+Pj4+BgYGhoaFcXFxKSkpgYGC9vb3Ozs7T09NlZWXq6uqsrKzAwMDY2NjNzc3CwsK0tLSDg4NjY2NpaWnGxsZjY2NlZWVmZmZlZWVlZWVlZWVkZGRlZWVmZmZlZWVlZWVlZWVlZWVlZWXDw8PDw8PAwMDCwsLBwcHDw8PCwsLDw8PCwsLBwcHAwMAb6OUBAAAAmnRSTlMABkWTxNv0F/+E/9KZZlE5vDMt5V9MjGHE/6zt1UNQX3GcdsKKgxym5v/////704Dt////9v/////////////////////////////////////////////////////////////////////////////////////+//////////////8rDNejY/VAxuaDdZNVt6DqFIdH1Fq6cDQjQ1IKZAAASfVJREFUeAHs2dFSwyAUhOEDUNiEBHJKakTr+7+mU8e0Vb0s3rjfM+zMXvzy/xARERERERERERERGev8IYSDd9bIXyCKLuAquCi9EZkhYEzTnEvJ85RGhMFIV0TRA0vWq7wAPkpHRMeKuuoXa0U9SjdEsSJZ/cYm1CidEBmPVPSnBG+kD6IB1eovbMUgXRDFgFVvTk+bfloRovRA5LDo1em5tRfdLXDSAZEJY9bd9tpaO+suj8HI47HokEXS3ekyuk1vEqw8HosOOUy6uzxs0TsTX5ZFpwuPuRT9sLV2LnpvhpfHY9GhA3Ipb+/smoWS3DAQBcNRcEKW9CzjMhiOmeH/fymyjhmXp6uu8JZ7YaZFFT4QBCaQl55S8XEAN8lFh/kkotBBFMBxaZQl8enNIOCiw9rFkSW0GMBoA0CxdoMuOvwlm8QWa54HGM/NFZK/ZLnoDHqkeJ9YrHgxoIl+SyDlkeLBoqNqDu+ZRYcXKPVGs9msxDMwHrlPO16gPFh0AjjkIItOq93pTik90c+yLM+LMtZAIH0A6oF1MRedC+0GWHRac92pZf7r14XFRSveUlkaOHyOYw8XnQBGWrwBFp12d3lldUpZWxcbm5ubWwt5kZQBLCk9/MXBRSdw7XqgRafTXVmdWrZ3xG7lXZYnceQpRb/vOfjERec3nWlnlDfYotPtrk4x62Jv05LlTetdSPcvBbjonCadAJZAPbfosHZr++LAareYXdWO7lqBctG5SDrGe2bRYe1Wtw/EwYV29EDw4aLj3FM1qQH4rN2zOTwQe7sLWeNUu/vzNhed2JlHRDUg4C/Z57O9L0R/8VS7Bw7zcNGp3HPiKcDwSPGiNcqO+Pq33kii8N6ji1x0TpNO5R35gB7gAuXZ2q2dsFr93cvR8ZUL3XYdA+Zw8eu0HNS2TWmQRcclnVKnaQBADnBd/J+9++pOXNm2AHzDf7g5h33OvFkPZtYNvCEyQrYBW00GgYlG4ITcNnjn8KuvhVxgtXfjE5o9ZLrmmwZVazh83Sp54eXfmV0cq+gJJLktKaQzlMki8RwkVslx14EW3l9LCUFPSXZ0nlo63uPEY+S7sWVHJ1zsjFfY5WEevmR3dFwgix9hV8qd8JMGCDWmEPSUZEfHa+n4fcS/+OvAL3eGh92pZVnv+Bo7FjN8ya6A3IpduVgsVvhB0qgqdrvsKW3p6Hgtnf/8z3/4078OdnRCxK5Akh67mmHkybxxXDcaZMFosmUk9HbCNjtdnhk9MtMfDO14klnER2lzHG2kYRvnRaBNkq1CfGIn2mQsZzvTmaFharR5kTDt3iWLRqGf7hlGlzwwyp85O2DnHZ1gS0d2dELErletVo88duxgIniFZBamuNZwzDJ6lw5ME+noDDZFHDABg1mscjMGgHoRaDzWiEWHWhqwo/oE0DCHl3nXgeNAK7oAMNLQpwsUFbtdd3SCLZ11RydcZ7vxit0cuI0BMRc4KwFm5hilMQw9M8SRx+49UBXZFTutXZtgpI+Qy+hFrFKmq/MCcMtAScT0qI27jLjHtGKlMXKBfrFWR1rkYVCx23VHJ9jSkR2dELFbnJ6eplbsxBSjEhLkAoWEM0B1gsoA6U5niLnHLglT8Nxj5y26x+n6bNd5rHHEZuEgDrhZ2GJ9thtgRJ4i4QIt8hI46+BGsdt5R+d/Ay0d2dEJ49mOTMHOoURmceV0UojD4AKD+mOKHrsGJtywO5bs5NnuvYNOHSg2sOCa3QLnZB2Gz44J1DWnptjtvKPzPxt2sqMTTnYNMmNC065JF8BdSwPyPEBCUFzTY3cDuBwH2S0pJLt7dHgEVErAGTMZppGkyCGuZ6aoP7GbQcMBqdjtvqPzr//4x4/uNh2dULLrQZsK9oEcSS4wzDAHFDkH0geTzopd0XlchOfs7oDJWLIrAFMHKLaGcBbDGx7AmZTPgKkJXD6xExOgylej2L1ru1G/GyQs/vaJ/vf2jk5Y2FUdODXGgBlJZnFPzrEkmdcAra577HhnQrt6zq4yBeKxJ3aVJYajMeY8sYFhimUTyLNkAmaVLnBNr5wH+pUodtU0gOF1HsvVuYS/Q5x/2XR0Qvzf9mH3kGzC1ElSb0VJ0VoB0V1L8Cmioo+D7Qj3neA6Lf3pH2jRjZKMXnrShLXZTzZwylei2CU9dM6EK3Zx5BiIbA9tD/BmTguFIRrckuRBIeHghL9zogOgye1R7CwNg64Qls9OdwVfpIDc/rBLY3HNLekBQE/wd04bGPGVKHZJOBa9rNhljTz51CsqGdXRxLzX/fbQvrArtnVuS+ahWu7y94hounwtit0pltywG2NE2SvKYpWS3x7aA3bhiWIXx8EH7GSvKIvhxaY9pNh9wih24xf/28leUbA9pNh9wih2WThWkJ3sFa3YHSt2O4hi13Rw1RT6GfOY+OxkryjYHgoDuwj3PZHPhR0LAIYOal4TaO6xk72iYHsoDOwOIvuu7uCzYSdubABpt2YDN/cYrXtFwfZQGNh9BvmcerKRy4ggRTdCctMrCraHFDvFLmwncXWT3Z+brGKnHilCEMWO+x/FTrFT7BQ7xU79enYwEfxasdseNYxiF89fv1LsFLtf/M85/NcXip1i9wv/8Zpf/0qqCwE7IbZOufMXbMu14CbBteIpit0u8uWXb/jZaHHMn80hVmnyoMNtaWmnXMfFA5+lB5SXwINit4N89fXXX71ddtOPsjutPqb1Grto7obrdCUxq97y2MXnlYuSYreTfDMYfLOP7FL0Itm9mgC7Gd557HKeQMVuF/l2cHU1+PYNsHM7pra0Kv1letLX5SWnuVN7mLsm3Z5p9ork3fTyQ3aVZZJkyjjwiNb7JO+z6/WdFCnycTudaLOLrDG0k0xOsFjeKna7y5ffDR7z3ZehZ3doprPzvl47SJXrqMpLTtErZ3HOQ3twk7IN8sa88NllK5VKbcWOCVsnB+O+U2EMWosRzNbr7QY5cnJ358izC/TnHbjtY5zfxBS7HR7sBqvI413o2AnXdS2STOGET8lo2fXl9EonF2OmcEQWHD34SJH22c0wo4XZJVLMLrTkI82oXO+xqzljUqzYNUgXZXWT3f3Bzs83IWVn+Xg8Ihl6cfP9kXPuX8qzXafDAqbTqY3rDbt+t9t1fXYi3WPS1LlYisl5biISp+v1HrtblCS7B/IaJcVu5wc7X5083oWOnYjFYhGSHNn0Unbi/ayT9y8lu16Ho+GZF/HzjxTnTsyok+dIOZUH3Dnv1+s9dg84e8Yuo9jt/mC3zndfhvtsl0SXJDtTwaiTkpdrdnlYH3mSTZCsaQ1PTxF2jmI6sfX1eo+dhTxpBdlZit2uD3byeBdqdu+cxUn3PDZ2Sg8dpOTlml1lODhxSyVyZlgBdvfp7jvyVLMFSQMnZB7HXK/32ImFPXswnrPrItvsKnY7PdjJfBNqdiybwOTWWsCpjwvyktPR0430IQ2YSTKLkwC7uYYCeQFvHW8mgmxpD1yv99ixOQF6z9mJJdBQ7HaS7wcf5PtQs6MoRgTJWpRC31xuEol516LCYA4tQc5xQZLRCEkWhVy/2ds6DI69tlpU7HaTH4Lqftjf96s2l0tuScuiyDoxBqLY7Shf/Phc3Y9f7C27CrQjbkkKQ2fY5wt2k3ozm1PsPnW+v7qS6K6uvt/fd+fr7dr218+qJ1G+yPl4fNEYj7uK3SfOT5uf2/0U0ubYHkZ1KX4I48FOsdv/410oD3aK3f4f78J4sFPs9v94F7qDnRpGsf/5IXwHOzV6Z//zxdVV+A52atDY3mcw+APFTrFT7NRNVrHbfdQjRYii2HH/o9gpdoqdYqfY7XkUO8VOsVPsFDvFTrFT7D7ZKLuXa2vcki2lAsl0L7fXqewLO8WuBC8TZnDzm4+ya5gM5GG43cuWUuuIkQPA4MdzO3QVu7fPbt5YsUtVq9XZa+zkKLsAOznKLpM+5uuR64Ol1pnh9OSslPI/rMAGGRFfCsXubbBL5fmxjOMrdhF62c5OJshOjrJLDVt8PXL9R9KzhfywPrahjRPF7m2wq+coc9abmIPkepidN+IuHmBXXV6SPBgty2Rr+UBGlresDrR0Qfij7Cr1hTm5P2TDTC6cq7YcZbeok7lU3D6TpS2jejUczEi5+2y8sAczud4rlauObTN3uKlZwBG9+B9WYIMsy0VOsXtr7M6wSN0s4uthdnfLyU2JJTQrlcrhil3FOSYtlCcJMo8emRpGZ7gvj5Ai7QYzE7NwN0aMDUxSVfuK/ii7GMrkFMf5lizdhZmfLR2Lcnf1+K60HGb89V4pTpG7O0VyU9O1tUKE9D+s4AZZlgVThJ+dYldKp4dOOp2nl44WJcfx9TA7eZP10l+x472ZYXIYbSDGxRIWE6dMTAQ5Ga/YlTxfZY+dc0lmHeHfA2coktMDcl26i6TnN7nZTW+j66/32cUFhXm/qUlrDK0h6H9YgQ2yLMuwws9OsbPKZWNZLrv0ku75Byc5nE6ye+h2uxWfXRslxk/pInmLo2G/5sxpa4+rtd7KSsG5fmJnrnZe+ypukPGHR61L+2OMzdF6t3ifLRzA2rDz1yc6m5okrXvUfXbBDbIsb3Gr2L2xm6w58tnJ4XQ/90gxMGJ4Tw6WxwnWzZSp0z7wFrsrK8c2f45dCrrPaF16xa6G/nr3vTNu3CP2IbteZ1Nzlbpz6H9YgQ2yLI/QVuzeGLtBnBSD+GY43f3gBbsSGrZOJmFW2cSkTsofWnhWzj0D50F2FllFzGe0Lr1iV8Wd3H2Nhmer5q0PstvUXOUcNe/DCm7YfMQncBW7N8Euk+FTsmhcFBDfDKfLau33GclOH953M8yYmschBlMn4x6eEo6bzb61stJF4uzOfMbOH2XXxNxntC7dRb97MpnocreuLd5X04j46wPsNjXzD0epYcL/sFqBDbIsk0M9/OwUu0AOc0B6EN8Mp7uwMTyS7FgHLsgCzkgyUSB5ZwtSNDRg0V6xY16Dk0CMWdt7Gdf+KDsx7NMflSdLdwEgbm123w1hl4a3/nqvlBytt64pDAAYV54+rMAGWdZj+ubYqS7F4TvRSzwbThe1otwkUvHwTVav1DIk9Xf0olstyuhFvYTah6Ps6mk9OCevi7nb4vPdekVQF/76dYI1Dy0rSvlhBTbIshHnTrF7c+yagkdailuSmWtJbol1yJZh8MN0UXr5B3m2ZkvNLRmldcXurbGLwBkifsgtSWGQ4ZYYMDE54Yv0zdbvzE7WfD1N54SK3VtjR7dcrnBram19++vzu0vBl9GrInh9uVXvtppbEp2pNz6pt3n+P3v3rRypEkYB+MeI6bEIee+FNNnqaeYdTj7RjWi8Xb/7uhcnL1XJ0auC+TKIT/GfxvW/N72K46iQFJxCuohdAyRZUZc0bUlVZIkWsZvGeCBexO7D9RSN3dCU3iJ2lHrIzR23lKbWInYfTOprbDAcjSe6PhmPhgOm9aXOx46sEIUwsqgbTCcjIs8joswxqWk9lbHliXFjssyY2qNnXHbiZxSXRGTaQBACCGKTOoB7c7O62plzj1PDVlbZ6ppxz1p+aoWedtGJX+9cUI5n8Fw/8YC5nXJqPQdRFbsIDjWst8qGsvGAPGSrPXqS+WXafl9MKiVARDzNPMBzfGo5H3YVOxs+NUtS2VA3HhsyVaInmReX0weurqZtcnlhUs2dw+FEPA66UPNC+ASQj5Aa1mersvEEeZX16YW4bXMSTJJICN9DYFLOjGwAdqtrXgSHgHLYNqunsbrXrZ9U1q/7HdN6L+4EcEiwr9++kxBWiNCikp+EADKXU0tZ8DjAPVjULIUtG5WN7cqxUVtmCr2IC8+DKzp2sx8khhnAs6gipU5V8yRqpQAu4CKgZknaYPIgdhtGbTLQpBfu9e26wnf5/jn7RYJwJ+B3jtxgDoSJRS3kIgMyuNQsmQ2N2v7m5ubW9vbW3VWF/KJiB4fIgeh69+M3CcPpHjNua83j3hyAxxufsSPj1sn29u6+cWP0oilbBq4KX4dYSQjMg9bVPEfIfu0qG+u6UVvf3d7eNG6NmfqiYmddj1rqEsmval4qUYv4QrZrX2ITXd/XC4axl1/sNvaNGxO29KJidyd/3cLdbA54iU/tEQIhNU1jB/slPU/fdmF33bimM+1lxa4kvt79/iHRv1bXvMiiloiASEDsDg9yZfD2d7Z289xtvTR2D6MmvN79mf2mT8CKQgCBa1IbWIBFzQ/Zo8NclTy9XFRsv2LI+oD/4Eigv7M/9DmUNQ9ZK14XCAJqnMqUo1yZvHLS5rFbf8WSIkBGNzIEJBL/9oc+C55maMfrAq5LjVPY6dn5+fnRUZk7Xd/MY/eaGyhmiJhqMULz3ghs3H+zz+D6Kd3/7JyDbgRhFIXTsLZtDtb2PsEEtd0GtaJaUfm+a57iTo0735rRl835/z13PlIXwHrFD7K+3vfl9OcOCIIgipLc0tLY1l7fkM526raLL3d2LvFenCE2PN6lY94p3QplWCZD9Pn5BqMxIp5JbquLU0X+OQYrn+tYojm5hhXQ0JDCgrR3MeKtULouwKo6i9jsuQ6n0+kyiFJ9XZTamjKsAtDxDoMdM+2W0t5FySFaoSwHBQC3J9cb9U4QW1tr2mviP3VQfKLjHQQ7ZtpNgndP6wLa7DFiz/U5IwhiV2tLZFGhsuaJ8Q6CHS/tFPCOrgto2tn8uYGIdkYhW7sSKLUT8Q6CHTPtwDu6LqBpZ3UHcgNp7UpwhEddvINgx0w79I6uC2jaWYOBXJ/XIHSmtcOBRYrunZ1uxtoluH2pLrAajXmXmnaA25+bO2BMaEeOZxMHMEDtLLORq1mLEmM8+uATmYxckNmDceXzoL/raCgJVRfo1rSDbRRPbn5FR2drc1OYvTPqLhzq9/D9+Sa/y6yz2r+b3gEa5A/aVEBEIRBqkBkV6/3kR2LrpKp9p051Zqb7WUu3sHeunrUSPEnDN6P4CO02yqTGDQtx9hmqfIRhgcNM7Cz/Gh1lygfotxbQf3WBbav8S0zskv/YjEu8Y2H1+U2Edm/nAv/5rdrxQ772Zx1o//d/3rr1zunatbR+rQmnO+AtVdvlI2TqHCatzvi/oid0Zn3wYn9Fq+puVsyD8rOpAuN7v8G/RBq6/zC9Ou/wMrMTtRPsTvNELvA7tHMT2FKlPwkob99o7FTt2JjzEgkO6BZ4i8khzJ124rU5b0n/NGYeGsUgyEMYd7DDidBkPTqYKhZn39DOfKkdr+xLscMkn65dKBcQVejna+cqgGIjT4eYajxGL8gXin/0v4t+Wzu3f9EZQ+s/MHPJ2TDnxkhPjcJam1SZW3HFHnAmkbCtRbClFXfaDYqTtCm212ra7ur+SmdS4dbFWEu4nTEma7O0nvFATShWmfk+k7a/rTgz0XlLXLHW0/BUsS+hnbH0uREDb9n0R107PeVBf8OpfupJO8NeCe1yp2sXPs0TucCnaxfJwq7GSH9pWAs4ol0Rmb9Yu3tMOhNocV+7qm1utwf5qc6jH51MmtnLLlsbzkDND7W5kc5sUqgE2mXs8s1+G+ubZfqRl0h2hpo5S7aW6UF0gerNXMd3zmxfbltcm3jVm0mPW5bViDJ30oUbPTT1UuxLaNdc+2TFwFumwCSNNV+gwg2oT9pxov6B2onTPJELfKp2JSC58y/VVyYDpnK2Ohhrj7HOGognqFYfK+tV5CJbp8htttdIw8qO/mbtuIIL9lE95mSad8yrDrvY8JZMl3mD0hKL5VJTd9o9Mu+3sWJujLk+Xi6TmDGzORzujpyBdhnmKko/sGTO9phLPc368XSQFVOf9iW0M0s+d2LYabeuzWC/1G6QYB9DW3yEduFcQJzmfZJ2S0AnHxVQgKw/+pQr2KLE1nDGwGYFrFKw9SG21P8J7QZt5osMb6kN0rZt80ox9x8pHuAu0N6yCrTzX9pvY8qc1Lhr+Zt6M6HZzm1IO7FYqe20Y77ramagXWjqfl9Cu+/wscSw067LDOeldmqffdLj0kdoJwjdROqztMsB1/4YU1CIrYCOCvuhNsYgsgH4agpHj2TQoy7SFnIUGyBzHfsntGvEmR+zvCWldbhqcQV6SLspSuyz105sB9pd9LmeYJ9EosTDwgvtKrhj9nrs8wMzX7vw1P2+hHZcCxBDWLsMUlwPtHODB/ey7JPD8gO1E7lAX+QCn6FdBSj5ow50KGJjoSJB9Ijb3bndCE67PUadojYQj4hzu39Cu4U25zJSRqc5Um6aCYvv7IyuT/fmRLWhHl2YT9rtt5GL5uwRV7EwZlX2srOpVuASqq4R0k5XCqUFepzqlJrdtMmJYdQNTdXFvoR2B4S0GyDdBXo8RnfqPzhzywGT3AdrF76J1Cdody/O7VzApYiGVKBdYa+dCq2+pUK6DUyu/iXtmnhgs+7AXpT6sHuKwSsNyATm5KHz1ALW7pN2+20ATqHG86IC55YrGsaFLnMWzkZoFyzOKbDSPWMCYN1hTjoohqeKfb2h3UWgXdOCPbKHXARU/2GmFx/5keIQcROpsU3nJraGvbqi+zsHSeoAmyftvgN6pArHIDIpkkBCQcPXzqPI36ndIf0iMxv3NWYu1dgfTPeOfzJ3S+IgG95GtWmwT+3eH019PveXupf8jJprflOZ9WaJfXQ9PFXsS2j3Fka+xj6uGzymdvSs2ombSK3p7LQcwFGwKMDpA+vYk3bswLJqFuxu1r5MQdEbcGa0AsbDf0O7subyfyGsnQBT/gWWlc4IM34Lod17ML0i7/jWO4N2gv9oNp2fpgfATl3XHSCu05N25B+A3IcxgOzGRpKuJvDImADxf0M7zox+RTs7wWG8Df8CalprL/i/8N1y3qfdpm/wjgG8s2n3ab/JzoJvi6/ua/QMw/Vfvry/pjDuXeQf0a7Gv0Br88Bn4nKzcU9tXPKts2r3ZTi/dl8DqZ3UTmontfsHkdpJ7Wp8BL00l9odILU7b1zM6hrQOm/ExVI7qd3JcTEPykfj4g7UWT5lvB0XS+2+oHYfEhfzenR0hz1rfjwuFquzf6p2l/QVufwc7U6JiweNvrOe7uNisTSoh4/ExSssj8bF0VtLaesHcfGfpN3F5Ve07uJztDslLs445YeuZYi4WCwN6uEjcbGRcIb5l3HxvD6uLMe3B3HxH6TdV+VTtDspLvbz4SY6Ii4WS3k9Oh4Xm+W103sRF7P2uFxeeAdxsdTua2h3UlzsP9cxFXGxWCq0OxYXcxLTw7jYwLft4sFBXCwPsl/jIHtSXOw/L2Mm4mKxVGh3NC5mSz2Mi1nLHYmLv8hHCvmR4pS4ONOOLvvxfVwslgb18JG4eFlx9RGWh3GxMRx3jGVeaCe/QPliX6CcEhdnAMTv93GxWBrUwy/jYh44gJZ8GRfrWUBbSe2+pnanxMWZ25keiov3S3X9aFxszFzzWFzMd/7rUruvqd0JcXGmfva4WGontTuMi4vqGeJiqZ3U7k+Mi6V2MnySvV2M335bz3/4hQ9SO6ldV7um16lYADSXPhSpndQuOYzRq+iKt3qYFmO0bIRfrZtSu8/OjAWGeaZQ2az9Oed2VXQoYBinn0xxJ7U7nY7ts+TJgl9lXH+lVR6qZwqVB7dn1K7jGUQt75IWPXWt9PNEyQwRtbrjtJckiq9o+6dMVO0r6WKEHtAjn7ameHEyel563Islx1h738ntalq3JLV7NxtUb25u7nic4lcZVQ6+5hNNcdV2zxQq553p+bRbouT/0amBdUrVPKLBmKiz3Vis40ROkoicEU3xWBkgRZE22i0iWnnjRZlqF6lKHdVWAaNFlK3+ImVlpXavMmcf84h2Ovu8ot38ZSJvPjXF3UJo3seGypnMh2sXcV1Xf66doxMVnEigXdu+IhqGtEuMI0TjIdGVqqF7FzrIXivq7iCbQp6o6MSkdseI3xbT9oB56SlaQe97UR54Ovf6zefa+QdQM55bt5iHI+byhUiO+THJXI1rVsIVrbK4t7GzCUJlEReLUFl0zO8JlXdTn4XKK8X4aO10AOnn2mlEtMA80C7dpefaWcpkMlG6gWc5e2wK7dxcb+CMdtoVsZ1iYS61O4YNrQ80Z4pyMUHSQzlqI8lpywy0y61Wq0C7nKLzjaOPBzxDusaJ3j45zvZ4g/qmjJZolXdNcdU2g1CZRVwsQmXRLb8jVN5NfRYql7D8aO0i0Wj0cqedHtKuLLTTBnvtRkK7i84Wd39gXu20qzjxnurkdtoN7I5PhI4itWtxHxUVF80UMiqGCzjfmqhzoJ0Xj8cD7S61EQ/a3LPMXldZlZy8SI597QrWnHW09q1ycDxUvV2oLOLifagsuuV3hMpi6rNQeZw730cKtIiSh9r140QR/49VJNIxorgX0knHgh77RNSeROjKSdHUdzcHnV5HamdwBtUCfIYzaN1xF3VMD8/tBpP5eMF5VNKVYXaxZpEc+5Z0MxxoJwI83xBf0WBbxMX7UFl0y+8IlcXUZ6FyXz2bdpfOxaxs4/65dirUZg9xooTV6XxzVCqj0Gz2dLopLvNTzy6RqrR+XA+d8qaNFN1vp98bdv/GLZfpDaR2Zdze3d0Z7MHpreBotUPtmsgpUea+NzY3yKoskmPfksc28+xAu0Z8px1ruXCoPEXpfaGymPo8VJ7kzqYdNQBrOtmQahHRSmjHF0D6W5yoo0EZNAoUaSjAukVJG9uxQ/Rgwc7razj1YZEiHtCgTRrQkvQGUrs7x75txF1WgXxNwyOHtZsUo8xtK8PMIzSY+5iJ5DjQLudU3OFP7YKmeKHNd9qJuFiEyqJbfkeoLKaGQ+WaMj2fdmTqEXrJXI8Ep29X+hUFxHQzGEpuMIo3alcUiRHR7s3LaISOIrXTdtpxUgHGP/gefeYCqs+060ExuYoVM7uKy5zyWCTHQUZndAFPaJeHHjTFTTzstBNxsQiVRbf8jlBZTA2HyjdO9Hf8SuFr99HIr4trzcCxO4O5dmfyM/zWeKEZwVN/qr5PjgV3pSaaoemX4mbJzCIuFqGy6JbfFSqLqaFQuZ7hL6Kd/E22PC7yayx+3Fx4L2+WfKZQOW9vfot2UZ0+G6mdlzH4FcyElq53Xt4s+UyhcrEoM8/XkOFTjc+EaUrtpHbybp5/I1I7qZ3UTmoX0/N6jN4mHA9HIvT/RGontYtOADjX9BYrTOmJdYFCSO0qilfidyK1y2mbUgNva/fQntETk712Dd9FqV30xlnxO5HatTNE5be1Exxqh5zULmC84Hchtbv2FM178LWrtyNErlf0TKJK9opolY1cF8fKeko081yiTnes9ZNEk8ytZWfmMw9pT6X3I7WT2sUW6fjC8LVbYEM0sjtYEMWxIso+0qOmVrNKiTpo/ry8YoJuRcXIWCCz6EjtpHanXEtB/fruIHutPRJ5jzTJkgvPIwNLA0WiPCqBdm1FXF4x+RYjWg/lQfZJu3VPaveeaynC2lFRMUtYkopSsV9FfqHFWtAmkzHKgXbi8gpxbtduS+2etEsiKbV7z7UUYe105HJabDuo1iJm1dt16iDX2VILtNMGYe26P7WT2rXjeX4H8twurB21ve72OcUtm6lh2TcUxYh8Au3E5RVh7UZSu32MfgJSuwqq90RLOBsiSqFOVIIVI2rbC/dmEAm0U9F4KCKs3Tpxv6FTkR8ppHacxpgoMk5HiMhwHojoouA/bQO4YGphRpwB0n1fu4H/dptIdTChk5HayRQg4l4TXWlF8tFpizknH9avaA/fRboJCmHcRaR2zIZW5lORBYpRhE5v0IxQXknRAVK7qW3P+FSkdlk06A0u4diIMx0gtbvb3PHJSO1cl97ErVQMOhUZPkntvgBSO6md1E5qJ//V3b+hXY1fYrrG/7F3Zu2JIl0cf/rDzHLuxgtzuPHOFbOAGzoSRERR0ICOSbS7g8y+L713f9u3LChDYxbzPtFewm8WxfpzZvs9XY6nPPlYtXOc+Ad7fjzaWTMxzNg6FDejoq9516jrAKZ4DQPLan8w7X7443QMD5QdaKdcuOKdgIkYht+fijfD5gvP1CtMPJ57T+ky47h+edcMSh9Ku79/N0952Aaxdhr5QwbhxuHDWvQGmNAHFuJrazetjyIuwTyaooxba8tq9jLV+FDaff+Paf5mQbzJ3qt2nqm6Y23fdsY1zQQwB0PTEwtmQcy2DnQvmFlMObKBD4YEBxcitMaO2RaDCcVUO3egD4PZw6K7z1v9BlvuJG0hN/fnC9f6ZPVo7CymlzONxyQp+st+VNUtl9X6UNr98Jdp/v5z/L8U996lANBzJ6AfWM50AU5WTUJTVGFftCBhT4OZxSKhB8PSJBgSzC6Ab3bslhhMKKbaQbbZZrOHwZVm/AVbnuY7M37ozxfOj0nSbjb11mqmcUfX1bToL/vRad2VSqzWh9HuZ7K//vVD/AHKFrRzFdGEo3YSntJN9lK7zmpmsUjI82xnPHbYBRDPhjmRTSim2pEwmz28nHWn2myZ5LXRyN9FqXZkdZRbzTQWqwNBf+IvB1E1u6r1QbT79Teyv36/lc/tYu36oqjDkuOIdvJqiqdISB6IIhsSHFyIMKFvwNiEYr7mvxTMHqbP8wJbbucEy6kz7fzkIMtmGtNGXV/Q6LIfpdqxWrvX7sufTs3f/44/Lt6WdlQ1MpNYkyGhEcsKYusK7S4OQ/OE/QumHZtQzLSbQHW1nDTZci5XFUdlph27eTXTeMkTmNLlIEpWWa2da/foz1/MX/74YYtdili7c7Arw6So6dDfHwLfBxisaVeDgmy0/SHBwQUzh00oZtoFs4dFOEofWSdseXE4nQhlf75wSDs207hgVNt9XqPLQfRIr05ZrR1r9+uPpvnPl9trjsXaJYknSQDIpcWKA9m2DtaJNaLjikXhUjut5YB1HgwJ9i+YOWxCMdMumD0sAoBTVthyUwC73BfpfOFL7dhMY3lMp5n7y0G0pIPNau1Uuy9/Ms0ff72tJ6vIHG5Khts0iFegnK3dfvcyDC5dvH4ts9uebLok062sp4lySRGvRO4pbEgwu2AoPZl9bheaPQzHbTm0rDXOzth8YUZopnGjXWUzjVlU7mms1g61++EPsr/++ejmowBcXgfQM7gh9RPciHbCwyh5E0BoI+NuZaJoLR1ggdcwaH2CRwH42o1NjM1nGkfZmXasKfHTl7edQNl3ThpTCSPMWhhlcLx83drDG2FJbbAWnEK+Oq+lWG0WvZH1MgyVn6VLk/cqKF0ZA+aO9wlqZ+XEMAsvmth4pnEUVdiFdqwp8Wv0VUFASiqrIEWxVPThMPRk/5A9XXFaQMRkBRlc5CGSxLXX93V6wWqzaCQVvfW6FXe49hebw95qeTT69LTreN+JW2LuefL2tWNNiQjPns9qSCmybsUxaPSxd5iw9zn0WkPdanEnuuVWlq/pKqq5Ihqnc/Lc9c6c79CrJwWj2NITfRkH+wvH9TBIpoanujtDmtTcBiuGmX3XsivYBA8JtHY4GtTyqdcQJ11E89x1slUkZZa3C+MhKm4VsXyEQXzkKkigFXoHttBNt8cwPuWC5UkitWPt4vN2rCkR5V/pSRkJyrwExlxBgmojJdvtNK0CTmDUPgGj2jp9PE/Zo1INJIWvK7yKbbvyWJtZHIlUvOLQloxxC0fO8fxALwZJPOpMR7yflKHHiuFAP5qWXUx1nfockdYOR4NaPof7iDUbEWzpCT/EZRnVv30P5oj9AQbxqa6fFNGvUC1MPb5SfAqTx1ywrIGxU+1i7VhTYp0X/47B/wVHAEFXkTA0cYkMU8TyIU6sFHJWjW6EBjw1DCFPHs1Dzt/NTrJIIuRCbxnGwYJuZQ1osyQiN3FokvrCiulDxHOXLB6bzj7bZFmU1YpqN0FsdWmZ4HamHYtrqqB3Lrfpet3fZNmyfb5D7WLtWFMiwrNn9AEgsskWLA4JTYc85Mc4ERDRLVA1jqFPmCB2YRa8iRr0kUZSYJKlCo7KS8G8IJmp2JZlrbRjxVIw8bUjFMCjtUNRViuinUf9JGXY7YF2obiY1Dn6F2t0BcFpUe1Wy4v87rSLtWNNiQhv/vvvau3acI4EDxTEUetSu+zytTMamSW6bhHx9IiK4EeEGhKodsfQCJI1YYoznSbD2qFFwnkXKXye1g5HaS1GTkUsvKcdu12BNuLhIBzvQINW6HY1bA1xDunLauPt/2r30Ni4KcF4I0n/vqcdN0uhTz2Rr8pNUa9rTWGyMqWmn1WL+oUiPuX29LzClxG79aL8VOf8SH08zRhzHPWLxuIQg+RR4nEjp/vJsHbd02rPdtGQ9pQjMGjtcDSoVXqKhNbp2ZTn39Oua6bn5HbOGqTOoYJBvNbWGgc8Rytkc1VPH6IGk71MsJxJeFvW7rX0wHi9cVOC8eL1q+s+t8sMLABb9nSAi9TKlIYONno8gJnOdTn0YIYFB9QGzP2InAPQJzgCgGwVg6S2AGs/kaJJJaRdzwZn4WLFARAKSGuHo0GtOpBCONVBqFkc046UYbdjHsDM19GPZ8ZALttIK0gC2MMDxBw4paBaxyluVbuYSFPizl9Y5L6VubVWU+pb+toZXqIoiAsVA8Q0t9xkqxoSWFLLYCZIvsde6mSBWKzKHKt9GWW1FJCRkCHP17tg9K3hGQ0EcVQaGmJQgdM42g5LF9lyebuf28VEmhJRnr15do/fk20KexhiVMYNUJ62Z3Yeb+FCxeuh2t2BhlXagXYx0aYE4+1/0pt71A4vjjCEmscNKLnCYl+8W9M/QnOEd2Kg4ta1i2FNiXVeSq+f3ad2Gfwk4LitahcTbUpEePP8UTyMYgvaxbCmRDwDZWfaxbCmxG60i7WLiTYlIrx7+TzW7t61i4k2JSJGvpT+vT/tMrhOKvUAtYv58p9oUyLMK+nlD/emncqve6fZthRrFzclop8Tv7uX93b0qLhxgmvU+3k9E2sXNyVuByByqJ3AXXlKfe2oePTcu5joFK0JrtB6pZ7ycLSLmxKbs37wCWu2s5AQzTxvJWVyOXZcyT+4Hj4qfpyMnnvHpzYX/sbCXFrS4x6UdnFTIsLb67SLHGpPg9qrJNIIZsfgW2hAYVoXOHpwPXxUvOBGz71jvYVY05lmaUmqalVPqj5A7eKmBOON9Ooa7SKH2gs2IqcXEJrkZRuHtmEUoDqxuPePihfctXPv5hFiGzT0MSQZETXJ4B6sdnFT4tF/0tvNNtnRBdLjTOAhFgQ84PsEZSIgOyrOtFs7927XSAQaSOEkifrmSTL3ULWLmxJvpZcbvrcr5xBTCYlqd7DAchcJVK3QUXGqXfTcO/kde6CEtKMPUufBaBc3JaK5N9e+t4scap/BsTywUgjnxZp1RC6fFqszX63wUXGiXTFy7r1fXurJoU9JmnOIc8krzZfl252e+AC0i5sS/2dPllMdsGqIAOAMM+QyAU7wK1r4qPi5ixg5937iIlaSGCBKUqf3WJLO/KqGJJWQkMl8dtrFTYl70I6dIodJIxNcBqZEjoqvjVhqQDujN5GhEdMkT2G3ijRbJDJqn5l2cVPiHrRjgId3ZdTPjzlcwWlphV0yuLYkNeha8bPXLm5KPHvzw121y5bwrii23cbb4IpLFfckySh+5trFTYnn0qtdnLfLZDZOTj1JWz5qmc9Hu7gpEeHfzbXb7ZcbepLU5j4T7eKmxLp2Lz7O08ViSfIyiJhJffraxU2JKM9eXbfyNex9DF/pMqSOjLtkD76+b+3ipsTmfPVx/MyxhieVdvwzx766N+3ipsTdNf4GPgocVwcAvpY/cGAnfPPlbrV79D9yzSPpTSAIozMitSJCuREOyPkwXs8tnL3Szgcgx9M6SYVrZBfWOKho/veH3dt9xMdA0w3TNHRtwNUNAlFCcXfPnr/oDK/fCfHyxQ14/uwpu+XsLM2EBlOz1A2SUSLPGQniPKkZY3VZs86iPjs+NGE0nkxntj2bTsYjMIdc3SAYJSIRM0KEQhS8N7OzdID5zGmYzQF0S93oSJRQoBA5I0QdRlFvZrdYwnLlSKyWsFyoG92IEgqUomSk4PzbvyJMyc/OWsJ44FwwGMPSUje6ESUUqBhB4kiIhPjsuA5j2/mZMehc3eh0lOgNcVmkxGc3hOXA+QWDJQzVjU5Hib5RRmFNdHaWCatmOBt36zSswLR+Y9iHjetvZYNMlKBPKUTEac5Og7lzxnYRN84P5qC1G9s9fsOVDVpRIo5CRpY6SWie7bg5mjkn1h7Ks5uNTN5q+HjiIBukokR8FBWjCj+NrwhrYrMbwFg6dW3kZ4RBm+HYnr8+eIiuZHQhSiiQiJDRpjqKY0prdhpMnBMeoncxuwloLcaZDaIrGV2IEgrEYcqIU4dZRWt2Okyba+z2cDG7KehtRjO7jWR0OEr0m7QiMzsDmsRl25ezm4HRZjRnya1kdDhK9BouRFETmZ0JttNwOTsbzBbjxBbRk4z/GCU+KkQJ9eREnjISCcHZ2X8wO9tDPMgGvSjBo6wXu4vzmNBFtuEPLrIu4k42KEaJTISsN5Q5kUeKM7b6I8VXY7+WDYpRoj4eWV/gR5HVFF6gNBxUX6BsEXF7YXQgSqhTpaw3pJFI6Lwuvuf7O8Sd79+7+nXxeo/o+V+RjdtFiULcEaKYXQ9PP9GJY2s8s746ju3wjGzcLkqIO0MWM0UqTuBTAGl2134K4J2NvWzcLkoI8YWds8BtJIbC8PYEe4uRLFy+wTK+MjP+y1DGcZwBl7k9bdAqO1pblSur/sJMX5KZR3QvsPDupMNt5iISW5X9JKnsbYnIqPDpjLMyJqtb3H5SImg3Yerd7kHHnMs1C55MR/Vfu2g64T6XecYZVFIiaNdv7F3T3pHTKJ6ArGsnIeyL2h+qEnWLW9x+UiJoR4beuSdFoa5dAalfLTz6pETQztK7U3d/tDnSqnYpcs8aFjdjXVIiaGfp3Y67SjwJUdVOQPrVnp0mSXRzUiJop9gxjbTvdSy6WqGNkXCAJ4i9GkYR5di4MSkRtFs78868eHrHWRwlQxGVbebV6B2eIWu6KSkRtDvDQjuHFLGFyrbo1aAxgZxXfqlVUsI/7YJ2PJkGkHjVMb+OJH7AJRp2SgTtLIcI7DoK3QEQPlmXTk9v1pIS6v/VWrvhF6Snn7T0zg+TJf2kp6tt5u61O3Y0niwFgNQj6+IE8iwpYaVdy9f2mnW/H3eQjtZRnSFzY4/Zr0GyYuLxH9LwYYWxLxN3/2u342iwVQ7kHlnHC8iE+fgmpV3/8grRAKtpN7Pa4GOe04k1/Hty4l/PBHW97jo7r6+T/o+ub/M6IdmHf81ve+lbOynUIzjTTnGy40Y7CUiPtNsCUA+axJtyw1S7Xvalrt1w1bve6h5dQ5118wULbI6qNLNzgwZfqYsbMdPwkqnR+uUrP0hx9ggzDrRzTwzE/lgnAaCwvi4KCQBwM+2GwRimBtjyyq9XXfQd/3o7y+2dx3/a6ta2T++9997WbGtgLyaZYYpM0aJaRjRZtgABkggB5IDg+95ed9/77P/2VeEhwt7KiROODT66BrEtPXo0uX4R4OX7VrTliohE+4qoOaTRoqloiwlVOkRXWV7ozWmQJ5oniS4SnFAiiSu6yqo6mLY8TfBKf9JSNLu/Pu2ymrmck8O0Q3RsF8jOm8ZyTGV7TI2WLejFzQ0prxtmjea+zQlOsUdS0RbMun+H+JnCXYqPSTvGv//7AbXT9TY8+4///c9/uat2SzASrSbAkoMWLeE6D3Zx2SYiCwpElyWaQ1ZtwYxSJjXMZb1qdinRIkrrJPHZVRpqNITefELxKdSrk/r8aQpW4zO7WmCnHTq2i0oOQ5voHFQCvVZTmiTCNZWEodo0NzecQUodCLKUNAYFIpUvVkUaPlezvH+Hpl6b6WePUbt/+ZdDejvh8h//+9//8m/MuNd5yJYoA2eudi3o1WQKaqdJJGt5V7vn8Jwot9FuBtPZTMgQqVkjV948Ahtc3XvIstMO8bKLvKXdnGiQ9LRTikSpF9o19dksBWOSK7bR3TxkJ3XDv4OwmM2OlrvS7v4zN8I7FAwD9hzWg/Cn/7i7cCGv7eYwcLWzbADTCmonEJGZcsWYco2gdlO4dJiTg8o3fSkqtibAyNUueNoEl+qWdiOibsLVToL5lnYdxb1OJIcUjDztGn1e0zTvDhI8c8727007Nm28a+vegsPlrX97g0gTph0nB7UjudaDLhGJoBIl1trZnnY1OCdadilXIhrqNIIyMYo9T4oyDBvEzVztgqcbHhNyyOtE1lq7lqcdaWmijLm5YTNJG5SMp11aUKmu+GIL+Qf4LcU7LFDtsPuxHr7jimknK9DJBLSrdDIJqFgla6L1pTz0g9qJXP+8Al1a2GWV5ykuDMT4VBbz7fMZX6Qy1K0CtKwWzCivlMfr07RNDarlDlSD2iVt66luErthHabSuE6zmiUOYUbJQdwactV2UvHuIA10VZoV7lm7j2c71m73bYCH0ejHtKOSAQlXu7qvXYsDrSPVoUYZADszCGpHeQ4UvkuqAEJam9BIAbCtkQYA2ThRDoxVH6CTq1BBAX19mrZpJMA469SD2l3rYPRMYjeclDhnCfUNACFFlDKgVO6B1uUk7w5iDkCYH/pbCgA8XADeXDsSr2QKILUlInJtKVt0k4Yl57ovfhk2scpEJFtXErlYx0THcZJlIulKZqdvIFtxusHEOk6ZgRs2vP2ksX8XUXRPNaixvgOdu8cPXLtIuzviard7XO12T6Tdo9GumafdQ/NspF2kXTT4dINP3vk40i7S7r61+7D6dqRdpN19a/d+9aM90i7m437Fl0LS1lUHpl2k3bsf7NNDNgEeJ3lY4ssoa8YMGRaAvEfahU8Xx60GhdOI/pZi77UzoH5bOzmTOHlo7cKni60OB5CiUPQmMQZFulci7c5EUTxHpl0ochxva3cB8ODahU8Xl3QrbmcolGGNGNm1gf0K3QuRdiV0cbUr5o4Qr3K5Ra6FWMq1Uc4lTxpNnbPniLncGLGeUwRzcGoB5HvccqzaAInkA2sXPl08WBD1Mq8yF+xqJ7NJ4Psg0q5Tr9cLnnZTgAIOYZkBITbhoIg16JzYYOgAqxiAinkAzQCQLPBI1sCBe1jtwqeLB5pgNxztpr1jou7AviAaDIkqR2xqeJEiqicEJWlRNpnUlKk/CeyqPHOpPiLtPvvBR/v32m7gaXeqQAkTkLcA1AqAcFqEyggMMZaFrqtdTICzU8vXruWcVGIrAHrysNqFTxdf5zpV2dHO4tI04dN6n8bANyjZZVPDuS6toLmqwAVlIVMYCBN/EpiobbvkHpF271c/2C/t7LOzs7SnHbaAlwxDQhtKSaMHdR2kIRiXlzo0Xe3KACsUfe0a6Ai5D6/twqeLKdv0H7LZBK24cleRux1uXjYKbGrY0a6oTEh0tesQraDMHrJy2eX8EWn3XvW9fX1th8cGFOESMQPPjMs0JCCHGRCaDjVXuzFAm2kn42o/tAufLt5oV4XrUocKUONrg9zUZlPDrnadLPnaNYmegsW0uwYX5TH9b/fRJ/upnY6IC+BgjmgBwFzmAPJYB0NClNHVrgGQwVFQu2sAMfaw2oVPF2+0o17frBD1lrq8glyGTQ272i0uica3taOGB/2did7JzgH0GRYAtFNEtN0vWYAyniqgdXLasasdJgBMLqgdGaAoTx5Uu/DpYs+lZTNOlFa0Y6IhtIh6MGZDxa52eaNmDQLauZPAj+2d7O4imHavXUMBmLo/DtAhAwvEGSwR8akOADnL087qASx97Sa4Ag6xaYBmPax24dPFrksZgDhJQpaILM4iSi+J2NRwrkVSB2C51q4AojcJ/Bi1233gHADugtjVsfOPCTN0OJGfIMbkU3Q5vjpFBp3WgDvFF0jWyf5OF7PR3rJWo/WhhsiGitecl9vQJoa7/BFq9/7HO4/XBMBdMdPBjGE44rK/EKB5aBMoaseUKYTp8+rR8rH/TvaT59XP7ixMePfalYBb4UuogINuHZp2rYRKIchJgW+qj127t6tv7y46fffakdrAlxFr1+rqk2je7uC0e+eTnRdFQDTmKdHflwaFIL3JDrIVfrm029d2n71zLQ4jrOQm0q6gg0mvTUlz4EnVzl8lj7GuUIB6j0II34EhnikAYdfLem2n2u2+BCzSrt8bq+Ryp/BCtq7/rFqtrkiF8qvkMc6FQOrisZJ+tZuwHbZNrFureViUY0aR7kW7kALDH//oR3+jwDDSLntGAeRNeOHk5YmI63X9HLmEaBfchGkns9TFKS/fXDbZ/pHd5FM2M5svi3KUtPmOtPv/b398l4LXTcvrt/9GXSscchjFDrRz55umfhgixReC0XvuhRdeJDi+K9NocKmVvMmnInmpitqzOfnBhqq37oV2ll0jqtqZJJFoF4gGeX+dl8codU1NL9Jc6yvcQPZTF93YJrurbOIX7QyvdUSWqnhxpAtJy7+JswOLYdyMWpniy6Ics9kdafd29aO71Fm7fPsXG+3Cy6nhkKN3dqCdO99k+WGINFTS47ofXrhMVudaiubQH7X9ySfapCr6wYb+ur45n8/9h2zykqiYVGFFGSiSaFz76yhlEktOnENHrcDIS11saDUiSNTabJAK7OqMX7BUxXHqYsb3/Zs4O7AYRjZqdaEorXh4lGNemexEu/er73xyl/J+l5/9dKNdeBU/HDY7eMg2N2GIuT57cFmgEjUTNNdkNvlE9BxmRLkuCzb0H7JaIpHoetrV4WrCT8ksTsysFk/bbJ0jDUtOnHPnRHzeex624YoIai/iF2FO1NI3qYpE8mDg3sS7ksUwslErKncF5XlolKMK5RDtdpunyJ6x33hh3e9+uq3dNz71KQuRdiwMUTLmTLu5IRNldJoLxCafiKUqsmDDm6/tZL6rOlq1lJFSFvKXLbbOkYYlJ7L0KNeQFZwTwWgTv+h9nxJYqmI7KWjG2UY7FsPIRq0czjuCHBblOIbxPb6l+MJXvvnihd3Pf/rTXwS1++ZXvhA9ZD9VOxaGqKWYdiMQibILzxM2+cRSFVmw4U3tKMN3j4jGsOxTf6m12TpHGpacGNTuKVi+TGyQyv3+qMdSFZPJMg2KW9q5l7FRK5fnMA6LcrwA8R61++JXXry0+8lPf/qjnwS1+9ZXvhi9pfhU7a7WYYhHvCrVZTe8UBQG4lyor7VzJ5+skiVyxfIUurQONnTXSWvtruEiTiKnzIloCQVqQ4/YOleapH11rW+081MXYebLxAapIB/Pa0OWqrjMjUdC0b9JQDs2apVWy+0OL4dFOc4F+Y21e/e9V41S/NJXNpb99qc//cl3t7T79le+FH2A8qna0ToM8aoHoF954YUjBSArrbVzJ5/qUGOpiizY0F231k42YUA00CQiSrmHkhli6xxpWHIi085LXXzW8mVig1QAYBQbLFWxJoBe7Pg3eaEdG7WSTACw1dAoR/fKN9Tu/39UffvO2v3YeVn3u9/9wv3n25F2YdoxWBgiidZkHV44CaQfepNPlp+q+CzDgg29dQx53CDqLDxJRfcSidg6H0tq9YjhpS5m9AlRIJ0R6m0pkKooi5NJY/smwVErsV0Oj3JsKPM31u499ib2Lg9ZRzjGj8MespF2d5x8mtXUIYwphHLXUCkEcarW9MyN9UKagsCIQrjzqFXGlEO02/WfT7C3FCHahbyliLS7y+RThhcupxTGyk6FnzO1XvectpknKMhyRSHcddRKNtX7/J1s4AOUX/7QxXlt98Mfhn6AEmn3wDTuY+N70I59XMz4SdjHxZF20bxdOO9+9EHImfBfjoVox345tkvtQuLCpIJ1Gml3uNq9+8EdMgDYKECIdmwUYIfazWGEtzlPAICRj7Q7RO1Y8sS7bzT4xNj54NOshYhPL8d4m4U2vKhmnqLYlPEFrdHBaBc9ZP/62T0d8xwkMASCInqM4DwoSP4RaxeleYYMtX/7VYfaxcRUN2OnJZ2zR4jZyqWmd08QrY4gdMqI6aSuOF8vBW6ZwPHSctZXcxrvOqV2dKGXQuR7hA4pHezl9fqC8RL4ZQbZtpF2+6rdu+/dIWJnh3/CcwV8poILIVPPcWU0oTgrQgpJ6U3TSg6xmKkNtSzOl/q0giq0nfVcq9IDEVWw01M7gZgGveKIelGE4TS+vkCaQnaqsm0j7R5Iux28mdjtHyzGLMsSfe3miBKUEAtQQzMRQ1wuMQ0FxJJxgi7ZZ+uHrK9dCnEFI7zknqwPz3qgz9hDll0A+cC2kXZ7qt3H1Q8+CT+7+z/PFgGA97VbIV6AYJo6VNAsImJRwRKYpqnABCeVVt9eBrVz1zeggnxn85IvVrWN2Vo7dgHkA9vuq3bR/3Yf3qEQegdhFLF4PH680U6FvOrQ8LW71LGvqS4xSef7mV7ipnanUEGhz7RzOFWOfO02F0A+sO2eaPcPxt5G7zDt4jBEF0+7U+4I8yCu4yTGiNkk4qJ3UzvXrZj7j8cyiSMQAxfAMLDtfmj3UfUfjI9e+mHdBx8+VNAY0w4vtalV7cfQTLTbA7hASetVrUoFR9BUW5BDzHAXz0+3tMtA62kJEng6mF+rTZg6ZzLtq80FdvJqxbZ9OO0iwl/VsZjY+yBEO+kSAI4ITQBQ6oi44gGEFMYWAMsUj/hUAa1wAeMX2lEWgO8lcMwDgDCMYWwJ0NpckDHAZNtG2u0fHzz/eB/SPEl84j1kxXIMPY7j3jenMsZOEPGJe34bOo91kq6zlr8URTlwgXQeY9tG2u0f7767RyGyZhFfmXYMC1z6cCZQIphx7DOTQ9TuGAwNEnRo2kV8PJt9ds+0E+P4yli1moR4YNpFfFitvh2Vtt+zdhF//ej9QykIiLSLiLR7eKKPqd95N9Juv6k+Rl5hIDkKo9gx0QjCK3gXRe/snkg79RW8i4LGdkykXYN5F2l3f0TaEfMuesjeI5F2zLvoLcU9EmnHvIs+QLk3Iu0Y70Ta3RuRdqsqI9Ju37WLW43dxEHdYQcpfNXdas3kT70u0m7ftbM6HECKQtGbxNBmdEdCmspI5Avhq+5Sa0b9s0i7Q9SupFtxO0OhDGvEgFFIGdpdm8pocBnaiHbHWrOCMYq0O0DtBguiXuZVmspc7eRNwVh4SRnj9kr2zTlXDb/PzTMvrzWjbPbBtAvPuGvgbSYxfBmnV+MGvgzpsWjHus4ajnaDIpGcyNsXRIMhUeVo3TlGi9SmYAyaptFr+wVjROSu6NWI+q2eYY+IXeD2l91sKmPVaYumoi0mNOUnNMgTzZObQ+6qRssW9CJNO0THdmHdqbZVa+bvu1VrNuekh9EuPOMOT/XKbUG5Mwwn1jcAIIfhXGvWI9GOdZ3JjnZ5TqSqIep9GgPfoGR33TlGue6mYAz42oXe9AvGiOgKutdF7oqyRuVpR5HYBW5/2c2msk11WlZtwcz7HzbRIkrr7FCwEW1oE52Duu5U26o18/fdqjUrw2yn2u0g4w6L+ine5El2iuGM4KyqVtLrbRnBkLxYYhl7JNqxPgxHu2NhSP1L6ipyt8PNy0aBdY452rGCMagQ9ZObx11KJ5KVlPeYa4PKLoAa0XZTWaA6TSJZy9OzIdOOHQo0ojHtWFdaoNaM7RusNSM9vwvt0vmdZdzhsTHHO9JRYtvb3g7Ju4Dq49OO+uZEn1IBanxtkJvarHPM0Y4VjLEqFCaAqxv1ut4OIozYBe6q7aay7eo0M0V8mmnHDrFGtIB2rCstUGvG9g3WmlEvswvtmllk1Hua2TpBMVd/pvVG3gGOL8XW4Xe3Mu7c9DslG0ecdjM21ysgZoQn2HIfqa0FYrY+UIQsIV6mEWP5hKJfXqC6lByPlsebvUtQQBd/W3VgK70RC8lj6Xp29hFq14Y8FyfqLXV5BbkM6xxztWMFYze0a+aIJK7ml/TBmF0Ao1tNZVvVaXaKzCFRrkQ01NmhYCNaXieyQGVdaYFaM7ZvsNaMzPxutRtBrt6CEl6BkB8tDRFHsKj1Ie2H393OuCOFT1V4/QRbYKczwhIxN0A8W6L/jwnZ+RmkEJUWYt84mg8hjzMoo/PPi70thSs5Eq63rRfnlaV26ofkbdL1SkLscWm3bMaJLpUsEQ2hRdSDMescc7RjBWNMO69/bJShOlTEviZR9jI+6yXYBe6qm01lcVadtnbsskm0sMsqz29pl7Stp7pJNaiWO1BlXWmBWjNpvW+w1qzBjd5YuwrPawbP59ElKcQQm9yJl10nOv8k9RiiPvDD725n3KVhhViFGrYcRbFoxGJGKqhdIoYxYeFpJxsDxFhQO7Y3igPgWrHAQ7YGlv+Q3aTr1UB8XNplAOJUhzkRWZxFlF4S6xyjXIsVjDHtvIKxgSZPSgZoaaIsACSu2AXuqltNZaw6jTU72kSqAEJam7BDgUa0RsLZp1Nfd6Vt1Zqt9w3WmlWN+BtrJ9ZquWWtZqELn3WfqyD6eShCHxXONE2ug/6BWxl3JeMU8QSG2BIQcQqTBsyD2hVdlS897Z7C/IZ2bG8HcQHN9bax55nSEYi+dpt0vWu4fiTaMUSRaCpIROtOM5F1jm0XjDGsY2qc+91nrrhnY5GCF9xqKmPVaYw2qESSezGDrTp29ZPdxawrLVhrxvYN1JpRM0u7fcgqridpsNaRiV1UjlQHy9fudsZdX0B3XcbXrgKTY6jf1K7ja7cClWkn+tqxvT2aBvnbLoxBawFxXzuWrocFuHh8owAVvfSaBWPZJt2V7CWF4Gp3FwraasfaJZ4h4sB44llWhzmyTy68A7cz7vJgIdagvtHuBPKIfR4xluhtaye6Z9x/VNegFIhsb58hNLxtJ9Byd2z4IXksXQ+rYD0+7ZZZ6TULxkoZuiui3g45M8/SnSiVaCfanZ7imgr0C12tiVfQvarq+glWoNhud0Vfu9sZd5K2VCumcrrRDvUmYhryV03D3tYuZiszNQl5PDaOxhUNrjZ7t/KrQlpL+tvKnP28zsOxH5LH0vUwpZ1Eg097UnMmy7seBYi1OIDsBK/AISGuD9gXvna3Mu789Du9gJhREHEOE2zqMTxdAiRmAqLZR8QjXzts6wAdyCO2AJSRuWJ7x3LgMJDW2841UCratR+Sx9L1XHcj7faG3U+gnIin3jN1ZsnswPqbkIy7+DEGqXov4c5lvE3suBFztUNZjG3tTaK7Hdv2RIrhibtAlFm6HvsQOtLusWoXTPZ8HWL2JYbja3d3+vxJpF2k3Ut4atR3rl3bqGKk3ePX7mR8iq/LbILhjBv4GjwZYaTd/hGNeUbROw9PpF0UNPaw3ReRdhFRrGKkXcRfDjqM4i+fiThI/nzQ0Tt//kzEQfKnt+BweetPn4k4UO/+/Bc4TP7yZ8e6iIiIiIiIiIiI/wNSL1Zrk5fdbQAAAABJRU5ErkJggg==;" vertex="1" parent="1">
          <mxGeometry x="85" y="175" width="630" height="410" as="geometry" />
        </mxCell>
      </root>
    </mxGraphModel>
  </diagram>
</mxfile>
